<svg xmlns="http://www.w3.org/2000/svg" viewBox="0 0 512 512" width="512" height="512" role="img" aria-label="cleanrr avatar">
  <title>cleanrr avatar</title>
  <desc>cleanrr avatar tile, version v2.</desc>
  <rect width="512" height="512" rx="112" fill="#FFFFFF"/>

    <g transform="translate(256,290)" fill="#111827" stroke="#111827">
      <path d="M -110 -15 Q -110 -140, 0 -140 Q 110 -140, 110 -15 L 110 35 Q 90 55, 65 45 Q 40 35, 20 50 Q 0 65, -20 50 Q -40 35, -65 45 Q -90 55, -110 35 Z" stroke="none"/>
      <path d="M -90 -5 Q -145 -40, -170 -95" stroke-width="14" fill="none" stroke-linecap="round"/>
      <circle cx="-170" cy="-105" r="15" stroke="none"/>
      <path d="M 90 -5 Q 145 -40, 170 -95" stroke-width="14" fill="none" stroke-linecap="round"/>
      <circle cx="170" cy="-105" r="15" stroke="none"/>
      <path d="M -105 15 Q -160 20, -175 -20 Q -180 -55, -150 -55" stroke-width="14" fill="none" stroke-linecap="round"/>
      <path d="M 105 15 Q 160 20, 175 -20 Q 180 -55, 150 -55" stroke-width="14" fill="none" stroke-linecap="round"/>
      <path d="M 90 45 Q 130 70, 150 105" stroke-width="14" fill="none" stroke-linecap="round"/>
      <rect x="130" y="105" width="50" height="35" rx="5" stroke="none"/>
      <path d="M -55 55 Q -85 100, -60 135 Q -40 160, -20 140" stroke-width="14" fill="none" stroke-linecap="round"/>
      <path d="M 55 55 Q 85 100, 60 135 Q 40 160, 20 140" stroke-width="14" fill="none" stroke-linecap="round"/>
      <path d="M -20 60 Q -25 100, -5 120" stroke-width="14" fill="none" stroke-linecap="round"/>
      <path d="M 20 60 Q 25 100, 5 120" stroke-width="14" fill="none" stroke-linecap="round"/>
    </g>
    <g transform="translate(256,290)" stroke="none">
      <circle cx="-35" cy="-55" r="20" fill="#FFFFFF"/>
      <circle cx="35" cy="-55" r="20" fill="#FFFFFF"/>
      <circle cx="-27" cy="-60" r="7.5" fill="#111827"/>
      <circle cx="43" cy="-60" r="7.5" fill="#111827"/>
      <path d="M -22 -15 Q 0 10, 22 -15" stroke="#FFFFFF" stroke-width="6" fill="none" stroke-linecap="round"/>
      <circle cx="-170" cy="-105" r="5" fill="#FFFFFF"/>
      <circle cx="170" cy="-105" r="5" fill="#FFFFFF"/>
      <rect x="140" y="115" width="5" height="5" fill="#FFFFFF"/>
      <rect x="152" y="115" width="5" height="5" fill="#FFFFFF"/>
      <rect x="165" y="115" width="5" height="5" fill="#FFFFFF"/>
    </g>

</svg>
