<svg xmlns="http://www.w3.org/2000/svg" viewBox="0 0 600 540" width="600" height="540" role="img" aria-label="cleanrr">
  <title>cleanrr</title>
  <desc>cleanrr stacked logo lockup.</desc>


    <defs>
      <mask id="cutouts_s">
        <rect width="600" height="540" fill="white"/>
        <g transform="translate(300,180)">
          <circle cx="-14" cy="-22" r="8" fill="black"/>
          <circle cx="14" cy="-22" r="8" fill="black"/>
          <path d="M -9 -6 Q 0 4, 9 -6" stroke="black" stroke-width="2.5" fill="none" stroke-linecap="round"/>
          <circle cx="-68" cy="-42" r="2" fill="black"/>
          <circle cx="68" cy="-42" r="2" fill="black"/>
          <rect x="56" y="46" width="2" height="2" fill="black"/>
          <rect x="61" y="46" width="2" height="2" fill="black"/>
          <rect x="66" y="46" width="2" height="2" fill="black"/>
        </g>
      </mask>
    </defs>
    <g mask="url(#cutouts_s)">
      <g transform="translate(300,180)" fill="#111827" stroke="#111827">
        <path d="M -44 -6 Q -44 -56, 0 -56 Q 44 -56, 44 -6 L 44 14 Q 36 22, 26 18 Q 16 14, 8 20 Q 0 26, -8 20 Q -16 14, -26 18 Q -36 22, -44 14 Z" stroke="none"/>
        <path d="M -36 -2 Q -58 -16, -68 -38" stroke-width="5.5" fill="none" stroke-linecap="round"/>
        <circle cx="-68" cy="-42" r="6" stroke="none"/>
        <path d="M 36 -2 Q 58 -16, 68 -38" stroke-width="5.5" fill="none" stroke-linecap="round"/>
        <circle cx="68" cy="-42" r="6" stroke="none"/>
        <path d="M -42 6 Q -64 8, -70 -8 Q -72 -22, -60 -22" stroke-width="5.5" fill="none" stroke-linecap="round"/>
        <path d="M 42 6 Q 60 12, 64 26" stroke-width="5.5" fill="none" stroke-linecap="round"/>
        <rect x="56" y="26" width="20" height="14" rx="2" stroke="none"/>
        <path d="M -22 18 Q -34 36, -24 50 Q -16 60, -8 52" stroke-width="5.5" fill="none" stroke-linecap="round"/>
        <path d="M 22 18 Q 34 36, 24 50 Q 16 60, 8 52" stroke-width="5.5" fill="none" stroke-linecap="round"/>
        <path d="M -8 22 Q -10 38, -2 46" stroke-width="5.5" fill="none" stroke-linecap="round"/>
        <path d="M 8 22 Q 10 38, 2 46" stroke-width="5.5" fill="none" stroke-linecap="round"/>
        <path d="M -82 -54 L -80 -48 L -74 -46 L -80 -44 L -82 -38 L -84 -44 L -90 -46 L -84 -48 Z" stroke="none"/>
      </g>
    </g>
    <g transform="translate(300,180)" stroke="none">
      <circle cx="-11" cy="-24" r="3" fill="#111827"/>
      <circle cx="17" cy="-24" r="3" fill="#111827"/>
    </g>

  <text x="300" y="450" text-anchor="middle"
        font-family="-apple-system, BlinkMacSystemFont, 'Inter', 'Segoe UI', 'Helvetica Neue', Arial, sans-serif"
        font-size="96" letter-spacing="-2"
        fill="#111827">clean<tspan font-weight="700">rr</tspan></text>
</svg>
