<svg xmlns="http://www.w3.org/2000/svg" viewBox="0 0 200 200" width="200" height="200" role="img" aria-label="cleanrr">
  <title>cleanrr</title>
  <desc>Octopus mascot, the cleanrr logomark.</desc>
  <rect width="200" height="200" fill="#111827"/>
  <g transform="translate(100,108)" fill="#FFFFFF" stroke="#FFFFFF">
    <path d="M -44 -6 Q -44 -56, 0 -56 Q 44 -56, 44 -6 L 44 14 Q 36 22, 26 18 Q 16 14, 8 20 Q 0 26, -8 20 Q -16 14, -26 18 Q -36 22, -44 14 Z" stroke="none"/>
    <path d="M -36 -2 Q -58 -16, -68 -38" stroke-width="5.5" fill="none" stroke-linecap="round"/>
    <circle cx="-68" cy="-42" r="6" stroke="none"/>
    <path d="M 36 -2 Q 58 -16, 68 -38" stroke-width="5.5" fill="none" stroke-linecap="round"/>
    <circle cx="68" cy="-42" r="6" stroke="none"/>
    <path d="M -42 6 Q -64 8, -70 -8 Q -72 -22, -60 -22" stroke-width="5.5" fill="none" stroke-linecap="round"/>
    <path d="M 42 6 Q 64 8, 70 -8 Q 72 -22, 60 -22" stroke-width="5.5" fill="none" stroke-linecap="round"/>
    <path d="M 36 18 Q 52 28, 60 42" stroke-width="5.5" fill="none" stroke-linecap="round"/>
    <rect x="52" y="42" width="20" height="14" rx="2" stroke="none"/>
    <path d="M -22 22 Q -34 40, -24 54 Q -16 64, -8 56" stroke-width="5.5" fill="none" stroke-linecap="round"/>
    <path d="M 22 22 Q 34 40, 24 54 Q 16 64, 8 56" stroke-width="5.5" fill="none" stroke-linecap="round"/>
    <path d="M -8 24 Q -10 40, -2 48" stroke-width="5.5" fill="none" stroke-linecap="round"/>
    <path d="M 8 24 Q 10 40, 2 48" stroke-width="5.5" fill="none" stroke-linecap="round"/>
    <path d="M -82 -54 L -80 -48 L -74 -46 L -80 -44 L -82 -38 L -84 -44 L -90 -46 L -84 -48 Z" stroke="none"/>
  </g>
  <g transform="translate(100,108)" stroke="none">
    <circle cx="-14" cy="-22" r="8" fill="#111827"/>
    <circle cx="14" cy="-22" r="8" fill="#111827"/>
    <circle cx="-11" cy="-24" r="3" fill="#FFFFFF"/>
    <circle cx="17" cy="-24" r="3" fill="#FFFFFF"/>
    <path d="M -9 -6 Q 0 4, 9 -6" stroke="#111827" stroke-width="2.5" fill="none" stroke-linecap="round"/>
    <circle cx="-68" cy="-42" r="2" fill="#111827"/>
    <circle cx="68" cy="-42" r="2" fill="#111827"/>
    <rect x="56" y="46" width="2" height="2" fill="#111827"/>
    <rect x="61" y="46" width="2" height="2" fill="#111827"/>
    <rect x="66" y="46" width="2" height="2" fill="#111827"/>
  </g>
</svg>
