<svg xmlns="http://www.w3.org/2000/svg" viewBox="0 0 200 200" width="200" height="200" role="img" aria-label="cleanrr">
  <title>cleanrr</title>
  <desc>Simplified cleanrr octopus, optimized for small sizes.</desc>
  <defs>
    <mask id="cutouts4">
      <rect width="200" height="200" fill="white"/>
      <g transform="translate(100,108)">
        <circle cx="-16" cy="-22" r="10" fill="black"/>
        <circle cx="16" cy="-22" r="10" fill="black"/>
        <path d="M -10 -2 Q 0 6, 10 -2" stroke="black" stroke-width="2.5" fill="none" stroke-linecap="round"/>
      </g>
    </mask>
  </defs>
  <g mask="url(#cutouts4)">
    <g transform="translate(100,108)" fill="#FFFFFF" stroke="#FFFFFF">
      <path d="M -50 0 Q -50 -60, 0 -60 Q 50 -60, 50 0 L 50 16 Q 42 28, 30 24 Q 18 20, 10 28 Q 0 36, -10 28 Q -18 20, -30 24 Q -42 28, -50 16 Z" stroke="none"/>
      <path d="M -36 12 Q -54 18, -56 36" stroke-width="7" fill="none" stroke-linecap="round"/>
      <path d="M -14 26 Q -18 44, -8 50" stroke-width="7" fill="none" stroke-linecap="round"/>
      <path d="M 14 26 Q 18 44, 8 50" stroke-width="7" fill="none" stroke-linecap="round"/>
      <path d="M 36 12 Q 54 18, 56 36" stroke-width="7" fill="none" stroke-linecap="round"/>
    </g>
  </g>
  <g transform="translate(100,108)" stroke="none">
    <circle cx="-13" cy="-24" r="4" fill="#FFFFFF"/>
    <circle cx="19" cy="-24" r="4" fill="#FFFFFF"/>
  </g>
</svg>
